<svg width="32" height="32" viewBox="0 0 32 32" fill="none" xmlns="http://www.w3.org/2000/svg">
<path d="M16 16C18.7614 16 21 13.7614 21 11C21 8.23858 18.7614 6 16 6C13.2386 6 11 8.23858 11 11C11 13.7614 13.2386 16 16 16Z" stroke="#1A1A1A" stroke-width="2" stroke-linecap="round" stroke-linejoin="round"/>
<path d="M7.41 26C7.41 22.13 11.26 19 16 19C16.96 19 17.89 19.13 18.76 19.37" stroke="#1A1A1A" stroke-width="2" stroke-linecap="round" stroke-linejoin="round"/>
<path d="M26 22C26 22.32 25.96 22.63 25.88 22.93C25.79 23.33 25.63 23.72 25.42 24.06C24.73 25.22 23.46 26 22 26C20.97 26 20.04 25.61 19.34 24.97C19.04 24.71 18.78 24.4 18.58 24.06C18.21 23.46 18 22.75 18 22C18 20.92 18.43 19.93 19.13 19.21C19.86 18.46 20.88 18 22 18C23.18 18 24.25 18.51 24.97 19.33C25.61 20.04 26 20.98 26 22Z" stroke="#1A1A1A" stroke-width="2" stroke-miterlimit="10" stroke-linecap="round" stroke-linejoin="round"/>
<path d="M23.49 21.98H20.51" stroke="#1A1A1A" stroke-width="2" stroke-miterlimit="10" stroke-linecap="round" stroke-linejoin="round"/>
<path d="M22 20.52V23.51" stroke="#1A1A1A" stroke-width="2" stroke-miterlimit="10" stroke-linecap="round" stroke-linejoin="round"/>
</svg>
