<svg width="32" height="32" viewBox="0 0 32 32" fill="none" xmlns="http://www.w3.org/2000/svg">
<path d="M22 11.16C21.94 11.15 21.87 11.15 21.81 11.16C20.43 11.11 19.33 9.98 19.33 8.58C19.33 7.15 20.48 6 21.91 6C23.34 6 24.49 7.16 24.49 8.58C24.48 9.98 23.38 11.11 22 11.16Z" stroke="#1A1A1A" stroke-width="2" stroke-linecap="round" stroke-linejoin="round"/>
<path d="M20.97 18.44C22.34 18.67 23.85 18.43 24.91 17.72C26.32 16.78 26.32 15.24 24.91 14.3C23.84 13.59 22.31 13.35 20.94 13.59" stroke="#1A1A1A" stroke-width="2" stroke-linecap="round" stroke-linejoin="round"/>
<path d="M9.97 11.16C10.03 11.15 10.1 11.15 10.16 11.16C11.54 11.11 12.64 9.98 12.64 8.58C12.64 7.15 11.49 6 10.06 6C8.63 6 7.48 7.16 7.48 8.58C7.49 9.98 8.59 11.11 9.97 11.16Z" stroke="#1A1A1A" stroke-width="2" stroke-linecap="round" stroke-linejoin="round"/>
<path d="M11 18.44C9.63 18.67 8.12 18.43 7.06 17.72C5.65 16.78 5.65 15.24 7.06 14.3C8.13 13.59 9.66 13.35 11.03 13.59" stroke="#1A1A1A" stroke-width="2" stroke-linecap="round" stroke-linejoin="round"/>
<path d="M16 18.63C15.94 18.62 15.87 18.62 15.81 18.63C14.43 18.58 13.33 17.45 13.33 16.05C13.33 14.62 14.48 13.47 15.91 13.47C17.34 13.47 18.49 14.63 18.49 16.05C18.48 17.45 17.38 18.59 16 18.63Z" stroke="#1A1A1A" stroke-width="2" stroke-linecap="round" stroke-linejoin="round"/>
<path d="M13.09 21.78C11.68 22.72 11.68 24.26 13.09 25.2C14.69 26.27 17.31 26.27 18.91 25.2C20.32 24.26 20.32 22.72 18.91 21.78C17.32 20.72 14.69 20.72 13.09 21.78Z" stroke="#1A1A1A" stroke-width="2" stroke-linecap="round" stroke-linejoin="round"/>
</svg>
