<svg width="32" height="32" viewBox="0 0 32 32" fill="none" xmlns="http://www.w3.org/2000/svg">
<path d="M23.86 12.09C23.86 12.51 23.83 12.92 23.78 13.31C23.32 13.11 22.82 13 22.29 13C21.07 13 19.99 13.59 19.32 14.49C18.64 13.59 17.56 13 16.34 13C14.29 13 12.63 14.67 12.63 16.74C12.63 19.42 14.05 21.47 15.63 22.86C15.58 22.89 15.53 22.9 15.48 22.92C15.18 23.03 14.68 23.03 14.38 22.92C11.79 22.03 5.99997 18.35 5.99997 12.09C5.99997 9.32997 8.21996 7.09998 10.96 7.09998C12.59 7.09998 14.03 7.87997 14.93 9.08997C15.84 7.87997 17.28 7.09998 18.9 7.09998C21.64 7.09998 23.86 9.32997 23.86 12.09Z" stroke="#1A1A1A" stroke-width="2" stroke-linecap="round" stroke-linejoin="round"/>
<path d="M25.9998 16.74C25.9998 21.42 21.6699 24.18 19.7299 24.84C19.4999 24.92 19.1298 24.92 18.8998 24.84C18.0698 24.56 16.7999 23.89 15.6299 22.86C14.0499 21.47 12.6299 19.42 12.6299 16.74C12.6299 14.67 14.2898 13 16.3398 13C17.5598 13 18.6399 13.59 19.3199 14.49C19.9899 13.59 21.0699 13 22.2899 13C22.8199 13 23.3198 13.11 23.7798 13.31C25.0898 13.89 25.9998 15.2 25.9998 16.74Z" stroke="#1A1A1A" stroke-width="2" stroke-linecap="round" stroke-linejoin="round"/>
</svg>
