<svg width="39" height="31" viewBox="0 0 39 31" fill="none" xmlns="http://www.w3.org/2000/svg">
<path d="M2 29V27.4117C2 21.2716 6.98592 16.2941 13.1364 16.2941C19.2868 16.2941 24.2727 21.2716 24.2727 27.4117V29" stroke="#C31C2D" stroke-width="2.5" stroke-linecap="round"/>
<path d="M21.0909 19.4706C21.0909 15.0848 24.6523 11.5294 29.0455 11.5294C33.4386 11.5294 37 15.0848 37 19.4706V20.2647" stroke="#C31C2D" stroke-width="2.5" stroke-linecap="round"/>
<path d="M13.1364 16.2941C16.6508 16.2941 19.5 13.4498 19.5 9.9412C19.5 6.43256 16.6508 3.58826 13.1364 3.58826C9.62183 3.58826 6.77274 6.43256 6.77274 9.9412C6.77274 13.4498 9.62183 16.2941 13.1364 16.2941Z" stroke="#C31C2D" stroke-width="2.5" stroke-linecap="round" stroke-linejoin="round"/>
<path d="M29.0455 11.5294C31.6814 11.5294 33.8182 9.39618 33.8182 6.76471C33.8182 4.13324 31.6814 2 29.0455 2C26.4095 2 24.2727 4.13324 24.2727 6.76471C24.2727 9.39618 26.4095 11.5294 29.0455 11.5294Z" stroke="#C31C2D" stroke-width="2.5" stroke-linecap="round" stroke-linejoin="round"/>
</svg>
