<svg width="32" height="32" viewBox="0 0 32 32" fill="none" xmlns="http://www.w3.org/2000/svg">
<path d="M16 26C21.5228 26 26 21.5228 26 16C26 10.4772 21.5228 6 16 6C10.4772 6 6 10.4772 6 16C6 21.5228 10.4772 26 16 26Z" stroke="#1A1A1A" stroke-width="2" stroke-linecap="round" stroke-linejoin="round"/>
<path d="M16.33 21.45C16.15 21.51 15.84 21.51 15.66 21.45C14.1 20.92 10.6 18.69 10.6 14.91C10.6 13.24 11.94 11.89 13.6 11.89C14.58 11.89 15.45 12.36 16 13.1C16.54 12.37 17.42 11.89 18.4 11.89C20.06 11.89 21.4 13.24 21.4 14.91C21.4 18.69 17.9 20.92 16.33 21.45Z" stroke="#1A1A1A" stroke-width="2" stroke-linecap="round" stroke-linejoin="round"/>
</svg>
